<?xml version="1.0" encoding="UTF-8"?>
<svg width="433px" height="650px" viewBox="0 0 433 650" version="1.1" xmlns="http://www.w3.org/2000/svg" xmlns:xlink="http://www.w3.org/1999/xlink">
    <!-- Generator: Sketch 58 (84663) - https://sketch.com -->
    <title>poster-placeholder</title>
    <desc>Created with Sketch.</desc>
    <g id="poster-placeholder" stroke="none" stroke-width="1" fill="none" fill-rule="evenodd">
        <rect fill="#E1E1E1" x="0" y="0" width="433" height="650"></rect>
        <g id="logo" transform="translate(99.000000, 205.000000)" fill="#9E9F9F" fill-rule="nonzero">
            <g id="Group">
                <path d="M127.325691,30.4173416 L122.573383,35.2786644 C121.93069,35.9465285 120.848974,35.9465285 120.242489,35.2786644 L110.135913,24.9563044 C109.470589,24.2975271 109.470589,23.2253101 110.135913,22.5665327 L114.897273,17.6961234 C115.553544,17.0418893 116.580948,17.0418893 117.228167,17.6961234 L127.325691,28.0230268 C127.968384,28.6863475 127.968384,29.7449344 127.325691,30.4173416 Z M114.304366,43.7564479 L109.552058,48.6086839 C108.864104,49.2538315 107.827649,49.2538315 107.212111,48.6086839 L97.0829056,38.272694 C96.4673686,37.6275465 96.4673686,36.5780461 97.0829056,35.9147254 L101.857844,31.0034265 C102.491485,30.376452 103.536993,30.376452 104.202316,31.0034265 L114.304366,41.3575894 C114.928955,42.002737 114.928955,43.0976704 114.304366,43.7564479 L114.304366,43.7564479 Z M101.273989,57.0592075 L96.5126285,61.9341603 C95.8246754,62.6020241 94.7972714,62.6020241 94.1591043,61.9341603 L84.0751584,51.6526897 C83.4053093,50.9621094 83.4053093,49.8808057 84.0751584,49.2356584 L88.827467,44.3379894 C89.4746861,43.6837552 90.511142,43.6837552 91.153835,44.3379894 L101.273989,54.6648927 C101.885,55.31004 101.885,56.4004302 101.273989,57.0592075 Z M88.1530917,70.4301169 L83.4053093,75.3050694 C82.7580902,75.9911066 81.7125823,75.9911066 81.0608373,75.3050694 L70.9949954,64.9963391 C70.3160943,64.342105 70.3160943,63.2426283 70.9949954,62.615654 L75.7337259,57.7088985 C76.3673668,57.0592075 77.4490829,57.0592075 78.0691461,57.7088985 L88.1530917,68.0403449 C88.827467,68.7036656 88.827467,69.8122289 88.1530917,70.4301169 L88.1530917,70.4301169 Z M75.3580671,83.5193418 L70.5786026,88.3761212 C69.9494875,89.0348985 68.9220838,89.0348985 68.2612866,88.3761212 L58.2044969,78.0810209 C57.5074915,77.4040703 57.5074915,76.34094 58.2044969,75.6503597 L62.9432271,70.8162965 C63.5587644,70.1438893 64.6404802,70.1438893 65.2967513,70.8162965 L75.3580671,81.1295701 C76.0188643,81.8065205 76.0188643,82.8696511 75.3580671,83.5193418 L75.3580671,83.5193418 Z M50.6234333,97.5263119 L44.8980332,91.6472916 C44.2417622,90.9976009 44.2417622,89.9072106 44.8980332,89.2484334 L49.6684458,84.391654 C50.3156648,83.7056168 51.3792767,83.7056168 51.9902879,84.391654 L62.0878116,94.7049273 C62.3638983,95.0002414 62.5313604,95.354618 62.5449385,95.7635145 C58.7023576,95.6908218 54.6696845,96.3723156 50.6234333,97.5263119 L50.6234333,97.5263119 Z M31.7952401,105.027287 C31.1887551,104.373053 31.1887551,103.273577 31.7952401,102.601169 L36.5656526,97.7398466 C37.2219237,97.0765259 38.2855356,97.0765259 38.9101246,97.7398466 L41.7660358,100.688443 L31.7952401,105.027287 Z M232.921984,113.891251 L139.595699,18.513916 C139.595699,18.513916 139.24267,18.2231453 138.916798,18.5820654 C138.595451,18.8773794 135.667124,21.8941254 135.667124,21.8941254 C135.006327,22.5665327 133.974397,22.5665327 133.281918,21.8941254 L123.23418,11.5990252 C122.573383,10.9266179 122.573383,9.84985764 123.23418,9.20471014 C123.23418,9.20471014 126.144403,6.19250737 126.474802,5.85176045 C126.845934,5.47012389 126.529114,5.12483367 126.529114,5.12483367 L122.306348,0.808706017 C122.306348,0.808706017 121.699863,-2.77555756e-16 120.998332,-2.77555756e-16 C120.337535,-2.77555756e-16 119.690316,0.840509081 119.690316,0.840509081 L32.8543259,89.5392041 C23.268241,98.866583 10.8579271,111.35155 2.61154049,113.55959 C-2.6341028,115.017987 0.398322583,118.70714 8.35504465,118.616275 C34.4384288,118.36185 53.9953095,97.1764782 72.5836242,100.465822 C97.5038243,68.4038083 141.057599,45.00131 175.038867,118.239181 C184.258346,138.061565 205.503427,122.873339 180.945308,93.5418444 C176.360462,88.0353743 185.937495,80.6343511 188.625943,79.4530953 C192.645039,77.6266917 188.399643,82.9241704 190.436347,83.4193894 C200.877847,86.0454123 185.846975,87.5310689 188.888452,91.6472916 C227.250896,143.222745 178.256859,156.520962 166.036638,147.20267 C159.283834,142.009686 162.433935,154.921723 163.886784,157.352384 C165.344158,159.71944 161.270751,159.578598 153.268769,155.694083 C145.212475,151.805025 137.531839,151.982213 131.095856,158.610877 C107.990585,182.472247 117.282479,230.426697 117.354895,230.672035 C119.554535,240.47646 120.848974,241.916683 122.288244,236.555599 C124.487884,228.100532 136.676424,215.433833 145.823486,205.656668 L232.953666,116.585423 C232.953666,116.585423 233.415319,115.917559 233.483209,115.254238 C233.528469,114.540941 232.921984,113.891251 232.921984,113.891251 Z" id="Shape"></path>
                <path d="M165.090702,117.157878 C165.022812,115.785803 163.859628,114.745389 162.492773,114.845342 C161.130445,114.895318 160.130197,116.094747 160.193561,117.462278 C160.265977,118.838896 161.442739,119.883853 162.800542,119.815704 C164.149292,119.715751 165.181222,118.534495 165.090702,117.157878" id="Path"></path>
                <path d="M86.1978564,148.851885 C86.1209141,147.484354 84.953204,146.421223 83.5863497,146.512089 C82.2330733,146.589325 81.2101955,147.775124 81.2916636,149.169915 C81.3821837,150.51473 82.5363159,151.559687 83.8895921,151.473364 C85.2338166,151.400672 86.2838504,150.228502 86.1978564,148.851885" id="Path"></path>
                <path d="M131.141116,120.170081 C129.566065,120.283663 128.176581,119.047887 128.08606,117.430475 C127.991014,115.803977 129.190406,114.440989 130.810717,114.313777 C132.41745,114.231998 133.761674,115.4496 133.847669,117.067012 C133.974397,118.70714 132.743323,120.088301 131.141116,120.170081 M155.214952,130.515157 C143.067147,119.229619 146.977618,119.815704 138.360099,113.032568 C137.531839,112.360161 140.528056,105.954119 135.639968,103.319009 C130.955549,100.779309 122.971671,95.7135383 128.402881,87.8490993 C128.656337,87.5083524 129.059152,87.190322 128.977684,86.9495275 C128.905268,86.7041895 128.19921,86.754166 127.63346,86.754166 C124.211798,86.754166 119.491171,87.472006 114.960633,91.7108977 C106.727829,90.284304 97.9383211,91.9562354 91.2081471,96.1133479 C86.098284,99.270936 102.704207,101.347221 85.1342445,106.076788 C66.4961435,111.119842 90.2260033,115.204262 72.6515145,119.947459 C58.2226009,123.877407 70.5786026,126.83509 64.2965035,131.183021 L64.2965035,131.110328 C53.9274192,138.34325 23.2229809,128.579715 12.2428855,125.458473 C10.0613497,124.849672 8.38220071,126.121793 12.3877178,129.729167 C15.4065651,132.42334 40.8970422,153.136209 43.2641443,155.135258 C48.5007357,159.619487 41.4763713,164.903336 40.3041351,165.966466 C38.1859635,167.86102 36.2080978,173.013113 45.9842752,167.229502 C52.2437442,163.572152 56.7471223,155.930334 57.4577055,154.471937 C58.1682887,153.018083 58.5348955,153.277051 59.0599124,154.149363 C64.8034165,163.240491 73.5205078,162.599887 75.4576394,147.098174 C75.5255294,146.602955 74.6565358,145.975981 74.2763512,146.957332 C73.1403232,151.409758 68.4061189,162.99061 60.6892753,149.324387 C59.978692,148.056808 56.9372145,143.913326 61.5220607,141.191894 C68.6822053,136.953002 83.8126501,133.268392 89.1171315,147.311708 C92.1495568,150.51473 100.504568,151.814111 100.563406,153.649601 C100.617718,155.775862 99.9976546,162.24551 94.2315205,164.780667 C92.7017297,165.480334 83.7538121,163.753883 78.662053,168.606119 C71.4475962,175.466491 75.9962342,198.273818 75.9962342,198.273818 C78.1913482,208.591635 81.2101955,204.261877 80.9205309,201.372343 C80.2914158,194.720963 83.4279394,195.706858 84.835528,197.6423 C94.99189,211.890065 107.709972,227.432668 107.900065,227.655289 C111.258363,231.93507 112.706685,230.249509 112.086622,228.046012 C104.876691,202.917063 103.677299,149.269867 113.421795,133.690918 C119.405177,142.486732 129.471019,140.773911 132.603016,138.007046 C136.712632,141.028335 139.898941,141.373626 143.723418,142.114182 C151.358794,154.140277 164.307702,138.961137 155.214952,130.515157" id="Shape"></path>
            </g>
        </g>
    </g>
</svg>